<?xml version="1.0" encoding="UTF-8"?>
<svg width="28px" height="28px" viewBox="0 0 28 28" version="1.1" xmlns="http://www.w3.org/2000/svg" xmlns:xlink="http://www.w3.org/1999/xlink">
    <!-- Generator: Sketch 47.1 (45422) - http://www.bohemiancoding.com/sketch -->
    <title>clock</title>
    <desc>Created with Sketch.</desc>
    <defs></defs>
    <g id="Page-1" stroke="none" stroke-width="1" fill="none" fill-rule="evenodd">
        <g id="clock" fill-rule="nonzero" fill="#648FC0">
            <path d="M14,27.8324786 C21.6581197,27.8324786 27.8564103,21.6102564 27.8564103,13.9760684 C27.8564103,6.31794872 21.634188,0.11965812 14,0.11965812 C6.36581197,0.11965812 0.143589744,6.31794872 0.143589744,13.9760684 C0.143589744,21.6102564 6.34188034,27.8324786 14,27.8324786 Z M14,2.05811966 C20.5811966,2.05811966 25.9179487,7.39487179 25.9179487,13.9760684 C25.9179487,20.557265 20.5811966,25.8940171 14,25.8940171 C7.41880342,25.8940171 2.08205128,20.5333333 2.08205128,13.9760684 C2.08205128,7.39487179 7.41880342,2.05811966 14,2.05811966 Z" id="Shape"></path>
            <path d="M13.3538462,15.6034188 L17.9726496,15.6034188 C18.5230769,15.6034188 18.9538462,15.1726496 18.9538462,14.6222222 C18.9538462,14.0717949 18.5230769,13.6410256 17.9726496,13.6410256 L14.3350427,13.6410256 L14.3350427,7.94529915 C14.3350427,7.39487179 13.9042735,6.96410256 13.3538462,6.96410256 C12.8034188,6.96410256 12.3726496,7.39487179 12.3726496,7.94529915 L12.3726496,14.6222222 C12.3726496,15.1726496 12.8034188,15.6034188 13.3538462,15.6034188 L13.3538462,15.6034188 Z" id="Shape"></path>
        </g>
    </g>
</svg>