<?xml version="1.0" encoding="UTF-8"?>
<svg width="28px" height="27px" viewBox="0 0 28 27" version="1.1" xmlns="http://www.w3.org/2000/svg" xmlns:xlink="http://www.w3.org/1999/xlink">
    <!-- Generator: Sketch 47.1 (45422) - http://www.bohemiancoding.com/sketch -->
    <title>member</title>
    <desc>Created with Sketch.</desc>
    <defs></defs>
    <g id="Page-1" stroke="none" stroke-width="1" fill="none" fill-rule="evenodd">
        <g id="member" fill-rule="nonzero" fill="#648FC0">
            <path d="M13.8227848,15.0632911 C17.9324643,15.0632911 21.2658228,11.6850251 21.2658228,7.5200909 C21.2658228,3.35515672 17.932415,0 13.8227848,0 C9.71315465,0 6.37974684,3.37826607 6.37974684,7.5200909 C6.37974684,11.6619157 9.71310529,15.0632911 13.8227848,15.0632911 Z M13.8227848,1.96679531 C16.8365136,1.96679531 19.302341,4.46575582 19.302341,7.5200909 C19.302341,10.574426 16.8365136,13.0733365 13.8227848,13.0733365 C10.809056,13.0733365 8.34322857,10.574376 8.34322857,7.52004088 C8.34322857,4.4657058 10.8090067,1.96679531 13.8227848,1.96679531 Z" id="Shape"></path>
            <path d="M0.988495465,26.7594937 L27.0115045,26.7594937 C27.5632252,26.7594937 28,26.3199913 28,25.7648251 C28,20.5601048 23.7931172,16.3037975 18.5976892,16.3037975 L9.40231085,16.3037975 C4.22989191,16.3037975 0,20.536952 0,25.7648251 C0,26.3199913 0.436774755,26.7594937 0.988495465,26.7594937 Z M9.40231085,18.2931346 L18.5976892,18.2931346 C22.3677972,18.2931346 25.4712387,21.1152709 25.9540316,24.7701066 L2.04596844,24.7701066 C2.52871164,21.1384237 5.63220276,18.2931346 9.40231085,18.2931346 Z" id="Shape"></path>
        </g>
    </g>
</svg>