<?xml version="1.0" encoding="UTF-8"?>
<svg width="28px" height="28px" viewBox="0 0 28 28" version="1.1" xmlns="http://www.w3.org/2000/svg" xmlns:xlink="http://www.w3.org/1999/xlink">
    <!-- Generator: Sketch 47.1 (45422) - http://www.bohemiancoding.com/sketch -->
    <title>notification</title>
    <desc>Created with Sketch.</desc>
    <defs></defs>
    <g id="Page-1" stroke="none" stroke-width="1" fill="none" fill-rule="evenodd">
        <g id="Artboard" transform="translate(-24.000000, -371.000000)" fill-rule="nonzero" fill="#C7D1DA">
            <g id="navigation" transform="translate(0.000000, 99.000000)">
                <g id="notification" transform="translate(24.000000, 272.000000)">
                    <path d="M26.8103652,20.9685913 C24.3018087,18.7992 21.9803652,15.7384348 21.9803652,8.09662609 C21.9803652,3.67104348 18.3798087,0.0706086957 13.9541043,0.0706086957 C9.5277913,0.0706086957 5.92674783,3.67104348 5.92674783,8.09662609 C5.92674783,15.7453739 3.60615652,18.8030957 1.0954087,20.9706609 C0.399304348,21.5769217 0,22.4500348 0,23.3662435 C0,23.870487 0.4088,24.279287 0.913043478,24.279287 L9.57782609,24.279287 C10.0005043,26.3078261 11.8017565,27.8367478 13.9536174,27.8367478 C16.1054783,27.8367478 17.9068522,26.3079478 18.3294087,24.279287 L26.9941913,24.279287 C27.4984348,24.279287 27.9072348,23.870487 27.9072348,23.3662435 C27.9072348,22.4426087 27.5069565,21.5681565 26.8103652,20.9685913 Z M13.9536174,26.0106609 C12.8165739,26.0106609 11.8449739,25.2888696 11.4724522,24.279287 L16.4347826,24.279287 C16.0622609,25.2888696 15.0906609,26.0106609 13.9536174,26.0106609 Z M2.18570435,22.4532 C2.21893913,22.4171652 2.25436522,22.3828348 2.29173913,22.3503304 C6.11958261,19.0456 7.75271304,14.7827826 7.75271304,8.09662609 C7.75271304,4.67794783 10.5346957,1.89669565 13.9539826,1.89669565 C17.3727826,1.89669565 20.1541565,4.67794783 20.1541565,8.09662609 C20.1541565,14.7766957 21.7875304,19.0393913 25.6173217,22.3511826 C25.6546957,22.3834435 25.6901217,22.4174087 25.7234783,22.4532 L2.18570435,22.4532 L2.18570435,22.4532 Z" id="Shape"></path>
                </g>
            </g>
        </g>
    </g>
</svg>