<?xml version="1.0" encoding="UTF-8"?>
<svg width="32px" height="29px" viewBox="0 0 32 29" version="1.1" xmlns="http://www.w3.org/2000/svg" xmlns:xlink="http://www.w3.org/1999/xlink">
    <!-- Generator: Sketch 47.1 (45422) - http://www.bohemiancoding.com/sketch -->
    <title>Group 11</title>
    <desc>Created with Sketch.</desc>
    <defs></defs>
    <g id="Page-1" stroke="none" stroke-width="1" fill="none" fill-rule="evenodd">
        <g id="Group-11" fill-rule="nonzero" fill="#C7D1DA">
            <path d="M31.3928366,4.2037585 C30.9894902,3.79298951 30.491085,3.58113786 29.9013333,3.58113786 L21.9748497,3.58113786 L21.9748497,0.968822336 C21.9748497,0.432569576 21.5589542,0 21.0209673,0 L20.9169673,0 L20.8130196,0 L11.1870327,0 L11.0826667,0 L10.9786667,0 C10.4410458,0 10.0073725,0.432569576 10.0073725,0.968822336 L10.0073725,3.5810857 L2.09835294,3.5810857 C1.50891503,3.5810857 1.01014379,3.79293736 0.606849673,4.20370635 C0.212392157,4.6060263 0,5.10352825 0,5.67446377 L0,26.5382009 C0,27.1091886 0.203503268,27.6151395 0.606797386,28.0259607 C1.00162092,28.4282285 1.50886275,28.6315789 2.09830065,28.6315789 L29.9012288,28.6315789 C30.4909804,28.6315789 30.9982745,28.4282285 31.392732,28.0259607 C31.7961307,27.6151395 32,27.1091886 32,26.5382009 L32,5.67446377 C32,5.10352825 31.7876078,4.6060263 31.3928366,4.2037585 Z M11.9326013,1.92027722 L20.0669804,1.92027722 L20.0669804,3.5810857 L11.9326013,3.5810857 L11.9326013,1.92027722 Z M30.0748235,26.5382009 C30.0748235,26.6592515 30.0226405,26.7113017 29.9013333,26.7113017 L2.09835294,26.7113017 C2.01176471,26.7113017 1.90781699,26.6076185 1.90781699,26.5382009 L1.90781699,12.4731703 L13.5285229,12.4731703 L13.5285229,12.9404227 C13.5285229,13.4766754 13.9447843,13.8918775 14.4824052,13.8918775 L17.5002353,13.8918775 C18.0378562,13.8918775 18.4715294,13.4766754 18.4715294,12.9404227 L18.4715294,12.4731703 L30.0748235,12.4731703 L30.0748235,26.5382009 Z M30.0748235,10.5702606 L1.90781699,10.5702606 L1.90781699,5.67451592 C1.90781699,5.55346528 1.97699346,5.50141507 2.09835294,5.50141507 L29.901281,5.50141507 C30.0225882,5.50141507 30.0747712,5.55346528 30.0747712,5.67451592 L30.0747712,10.5702606 L30.0748235,10.5702606 Z" id="Shape"></path>
        </g>
    </g>
</svg>