<?xml version="1.0" encoding="UTF-8"?>
<svg width="32px" height="32px" viewBox="0 0 32 32" version="1.1" xmlns="http://www.w3.org/2000/svg" xmlns:xlink="http://www.w3.org/1999/xlink">
    <!-- Generator: Sketch 47.1 (45422) - http://www.bohemiancoding.com/sketch -->
    <title>Group 2</title>
    <desc>Created with Sketch.</desc>
    <defs></defs>
    <g id="Page-1" stroke="none" stroke-width="1" fill="none" fill-rule="evenodd">
        <g id="Group-2" fill-rule="nonzero" fill="#C7D1DA">
            <path d="M30.343215,12.6330522 L28.0985386,12.2522589 C27.8647182,11.4973528 27.5640919,10.7691691 27.1966597,10.0743883 L28.5194154,8.22386639 C29.0805846,7.43555741 28.993737,6.3599833 28.3056367,5.67856367 L26.3148225,3.68774948 C25.9407098,3.31363674 25.4463466,3.10653862 24.9185804,3.10653862 C24.5043841,3.10653862 24.1102296,3.23346973 23.7762004,3.47397077 L21.9189979,4.79672651 C21.1974948,4.41593319 20.4425887,4.10194572 19.6609603,3.86812526 L19.2868476,1.65017119 C19.1265136,0.694847599 18.3048017,6.68058455e-05 17.3361169,6.68058455e-05 L14.5235908,6.68058455e-05 C13.5549061,6.68058455e-05 12.7331942,0.694847599 12.5728601,1.65017119 L12.1853862,3.92156994 C11.4371608,4.1553904 10.708977,4.46269729 10.0141962,4.83681002 L8.17703549,3.51405428 C7.84300626,3.27355324 7.44217119,3.14662213 7.02797495,3.14662213 C6.50020877,3.14662213 5.99916493,3.35372025 5.63173278,3.72783299 L3.634238,5.71864718 C2.95281837,6.40006681 2.85929019,7.47564092 3.42045929,8.2639499 L4.7565762,10.1411942 C4.38914405,10.8426555 4.09519833,11.5708392 3.86805846,12.3257453 L1.65010438,12.699858 C0.694780793,12.8601921 0,13.681904 0,14.6505887 L0,17.4631148 C0,18.4317996 0.694780793,19.2535115 1.65010438,19.4138455 L3.92150313,19.8013194 C4.15532359,20.5495449 4.46263048,21.2777286 4.83674322,21.9725094 L3.52066806,23.8029896 C2.95949896,24.5912985 3.04634656,25.6668727 3.73444676,26.3482923 L5.72526096,28.3391065 C6.0993737,28.7132192 6.59373695,28.9203173 7.12150313,28.9203173 C7.53569937,28.9203173 7.92985386,28.7933862 8.26388309,28.5528852 L10.1411273,27.2167683 C10.8158664,27.5708392 11.5240084,27.8581044 12.2521921,28.0852443 L12.6263048,30.3299207 C12.7866388,31.2852443 13.6083507,31.9800251 14.5770355,31.9800251 L17.3962422,31.9800251 C18.3649269,31.9800251 19.1866388,31.2852443 19.3469729,30.3299207 L19.7277662,28.0852443 C20.4826722,27.8514238 21.2108559,27.5507975 21.9056367,27.1833653 L23.7561587,28.5061211 C24.0901879,28.7466221 24.491023,28.8735532 24.9052192,28.8735532 L24.9052192,28.8735532 C25.4329854,28.8735532 25.9273486,28.6664551 26.3014614,28.2923424 L28.2922756,26.3015282 C28.9736952,25.6201086 29.0672234,24.5445344 28.5060543,23.7562255 L27.1832985,21.899023 C27.5507307,21.1975616 27.8580376,20.4693779 28.0851775,19.7211524 L30.3298539,19.3470397 C31.2851775,19.1867056 31.9799582,18.3649937 31.9799582,17.396309 L31.9799582,14.5837829 C31.9933194,13.6150981 31.2985386,12.7933862 30.343215,12.6330522 Z M30.1895616,17.396309 C30.1895616,17.4831566 30.1294363,17.556643 30.0425887,17.5700042 L27.2367432,18.0376451 C26.8826722,18.0977704 26.6020877,18.3583132 26.5152401,18.699023 C26.2613779,19.6810689 25.873904,20.6230313 25.3528184,21.4981879 C25.1724426,21.8054948 25.1858038,22.1862881 25.3929019,22.4802338 L27.0430063,24.8050772 C27.0897704,24.8718831 27.0830898,24.9720919 27.0229645,25.0322171 L25.0321503,27.0230313 C24.9853862,27.0697954 24.9386221,27.076476 24.9052192,27.076476 C24.8651357,27.076476 24.8317328,27.0631148 24.8050104,27.0430731 L22.4868476,25.3929687 C22.1995825,25.1858706 21.8121086,25.1725094 21.5048017,25.3528852 C20.6296451,25.8739708 19.6876827,26.2614447 18.7056367,26.5153069 C18.3582463,26.6021545 18.0977035,26.8894196 18.0442589,27.23681 L17.5699374,30.0426555 C17.5565762,30.1295031 17.4830898,30.1896284 17.3962422,30.1896284 L14.5837161,30.1896284 C14.4968685,30.1896284 14.423382,30.1295031 14.4100209,30.0426555 L13.94238,27.23681 C13.8822547,26.882739 13.6217119,26.6021545 13.2810021,26.5153069 C12.3256785,26.2681253 11.4037578,25.8873319 10.5419624,25.3929687 C10.4016701,25.3128017 10.2413361,25.2727182 10.0876827,25.2727182 C9.90730689,25.2727182 9.72025052,25.3261628 9.56659708,25.4397328 L7.22839248,27.1031983 C7.19498956,27.1232401 7.16158664,27.1366013 7.12818372,27.1366013 C7.10146138,27.1366013 7.0480167,27.1299207 7.00125261,27.0831566 L5.01043841,25.0923424 C4.95031315,25.0322171 4.94363257,24.9386889 4.99039666,24.8652025 L6.63382046,22.5604008 C6.84091858,22.2664551 6.85427975,21.8789812 6.67390397,21.5716743 C6.15281837,20.7031983 5.7519833,19.7612359 5.49812109,18.77919 C5.4045929,18.4384802 5.12400835,18.1779374 4.77661795,18.1178121 L1.95073069,17.63681 C1.86388309,17.6234489 1.80375783,17.5499624 1.80375783,17.4631148 L1.80375783,14.6505887 C1.80375783,14.5637411 1.86388309,14.4902547 1.95073069,14.4768935 L4.73653445,14.0092526 C5.09060543,13.9491273 5.37787056,13.6885846 5.46471816,13.3411942 C5.71189979,12.3591482 6.09269311,11.4105052 6.60709812,10.5353486 C6.7874739,10.2280418 6.76743215,9.84724843 6.56033403,9.5599833 L4.89686848,7.22177871 C4.85010438,7.15497286 4.85678497,7.05476409 4.91691023,6.99463883 L6.90772443,5.00382463 C6.95448852,4.95706054 7.00125261,4.95037996 7.03465553,4.95037996 C7.07473904,4.95037996 7.10814196,4.96374113 7.1348643,4.98378288 L9.43966597,6.62720668 C9.73361169,6.8343048 10.1210856,6.84766597 10.4283925,6.66729019 C11.2968685,6.14620459 12.2388309,5.74536952 13.2208768,5.49150731 C13.5615866,5.39797912 13.8221294,5.11739457 13.8822547,4.77000418 L14.3632568,1.94411691 C14.376618,1.85726931 14.4501044,1.79714405 14.536952,1.79714405 L17.3494781,1.79714405 C17.4363257,1.79714405 17.5098121,1.85726931 17.5231733,1.94411691 L17.9908142,4.72992067 C18.0509395,5.08399165 18.3114823,5.37125678 18.6588727,5.45810438 C19.6676409,5.7119666 20.6296451,6.10612109 21.5248434,6.63388727 C21.8321503,6.81426305 22.2129436,6.80090188 22.5068894,6.59380376 L24.811691,4.93701879 C24.8450939,4.91697704 24.8784969,4.90361587 24.9118998,4.90361587 C24.9386221,4.90361587 24.9920668,4.91029645 25.0388309,4.95706054 L27.0296451,6.94787474 C27.0897704,7.008 27.0964509,7.10152818 27.0496868,7.17501461 L25.3995825,9.49317745 C25.1924843,9.78044259 25.1791232,10.1679165 25.359499,10.4752234 C25.8805846,11.35038 26.2680585,12.2923424 26.5219207,13.2743883 C26.6087683,13.6217787 26.8960334,13.8823215 27.2434238,13.9357662 L30.0492693,14.4100877 C30.1361169,14.4234489 30.1962422,14.4969353 30.1962422,14.5837829 L30.1962422,17.396309 L30.1895616,17.396309 L30.1895616,17.396309 Z" id="Shape"></path>
            <path d="M15.9933194,9.0856618 C12.1853862,9.0856618 9.09227557,12.1787724 9.09227557,15.9867056 C9.09227557,19.7946388 12.1853862,22.8877495 15.9933194,22.8877495 C19.8012526,22.8877495 22.8943633,19.7946388 22.8943633,15.9867056 C22.8943633,12.1787724 19.8012526,9.0856618 15.9933194,9.0856618 Z M15.9933194,21.0839916 C13.1807933,21.0839916 10.8960334,18.7992317 10.8960334,15.9867056 C10.8960334,13.1741795 13.1807933,10.8894196 15.9933194,10.8894196 C18.8058455,10.8894196 21.0906054,13.1741795 21.0906054,15.9867056 C21.0906054,18.7992317 18.8058455,21.0839916 15.9933194,21.0839916 Z" id="Shape"></path>
        </g>
    </g>
</svg>